<?xml version="1.0" standalone="no"?>
<!DOCTYPE svg PUBLIC "-//W3C//DTD SVG 20010904//EN"
 "http://www.w3.org/TR/2001/REC-SVG-20010904/DTD/svg10.dtd">
<svg version="1.0" xmlns="http://www.w3.org/2000/svg"
 width="300.000000pt" height="71.000000pt" viewBox="0 0 300.000000 71.000000"
 preserveAspectRatio="xMidYMid meet">
<metadata>
Created by potrace 1.10, written by Peter Selinger 2001-2011
</metadata>
<g transform="translate(0.000000,71.000000) scale(0.100000,-0.100000)"
fill="#000000" stroke="none">
<path d="M112 680 c-12 -5 -27 -21 -32 -35 -6 -15 -10 -142 -10 -294 0 -256 1
-269 21 -295 l20 -26 1388 0 c1239 0 1389 2 1409 16 22 15 22 17 22 307 0 161
-4 297 -8 303 -22 34 -38 34 -1419 33 -797 0 -1377 -4 -1391 -9z m2782 -26
c13 -5 15 -45 16 -288 0 -267 -1 -283 -19 -300 -12 -11 -21 -14 -26 -7 -3 6
-11 11 -16 11 -6 0 -7 -5 -4 -10 4 -6 -7 -10 -27 -9 -31 1 -32 1 -8 9 16 5 -9
8 -70 7 -91 0 -92 -1 -30 -7 36 -4 -43 -7 -180 -7 -135 0 -227 3 -205 7 25 5
-4 7 -80 7 -113 -1 -115 -1 -40 -7 63 -5 47 -6 -75 -6 -104 -1 -135 2 -95 6
39 4 5 7 -100 6 -133 0 -145 -1 -70 -6 54 -4 -25 -6 -195 -7 -157 0 -271 3
-255 7 21 5 6 8 -52 9 -50 1 -83 -3 -83 -9 0 -6 -35 -10 -87 -9 -60 1 -80 4
-63 9 21 7 17 8 -20 8 -34 1 -40 -2 -25 -8 12 -5 -146 -9 -375 -9 -229 0 -387
4 -375 9 15 6 9 9 -25 8 -37 0 -41 -1 -20 -8 21 -7 17 -8 -20 -8 -34 -1 -40 2
-25 8 15 7 9 9 -25 9 -33 1 -41 -2 -30 -9 11 -7 5 -10 -23 -10 -23 0 -36 4
-32 10 3 6 -3 10 -14 10 -20 0 -21 5 -22 193 -1 310 1 368 14 383 10 11 244
13 1389 14 757 0 1383 -3 1392 -6z m-1531 -601 c-13 -2 -35 -2 -50 0 -16 2 -5
4 22 4 28 0 40 -2 28 -4z"/>
<path d="M1405 499 c3 -3 -9 -12 -25 -19 -24 -10 -27 -15 -17 -26 7 -7 18 -21
26 -30 8 -10 22 -14 35 -10 11 3 32 6 46 7 l25 1 -25 8 -25 7 25 11 c16 7 19
11 9 11 -9 1 -24 12 -32 24 -13 20 -54 36 -42 16z m25 -34 c13 -16 6 -35 -15
-35 -18 0 -28 17 -21 35 7 19 20 19 36 0z"/>
<path d="M1285 489 c-4 -6 -13 -8 -21 -5 -17 6 -54 -14 -54 -28 0 -6 5 -5 12
2 19 19 33 14 15 -6 -10 -10 -17 -29 -17 -43 1 -22 2 -21 15 9 16 36 30 44 19
10 -6 -19 -3 -18 19 7 23 27 28 29 47 17 18 -11 21 -11 18 -1 -3 8 -15 16 -29
19 -23 6 -23 6 -4 18 17 10 17 11 3 12 -9 0 -20 -5 -23 -11z"/>
<path d="M2305 479 c6 -9 -24 -21 -35 -14 -5 3 -12 0 -16 -6 -5 -8 -8 -8 -14
1 -12 19 -85 24 -119 7 -26 -13 -32 -13 -42 -1 -17 21 -135 15 -155 -8 -14
-15 -19 -15 -38 -3 -11 8 -45 17 -74 21 -43 5 -56 3 -72 -11 -11 -10 -20 -26
-20 -37 0 -10 -3 -18 -7 -18 -5 0 -9 -12 -9 -27 -1 -16 -5 -44 -9 -63 -12 -62
-13 -80 -6 -76 4 3 24 1 44 -4 30 -6 39 -5 46 8 7 13 12 14 24 4 15 -13 218
-19 236 -8 5 3 28 2 53 -2 48 -9 96 2 114 27 10 13 13 13 28 -2 10 -9 22 -17
27 -17 6 0 8 -4 5 -8 -10 -16 78 -1 111 18 19 11 32 16 29 11 -9 -14 16 -29
52 -32 21 -3 36 1 42 10 7 13 11 13 25 1 19 -15 82 -15 101 1 8 7 14 7 19 -1
9 -15 71 -12 84 3 6 8 14 28 17 46 4 17 10 34 14 36 5 3 6 15 2 27 -4 18 -2
20 16 16 12 -4 22 -2 22 4 0 5 4 6 10 3 6 -4 7 1 3 11 -4 12 -3 15 5 10 21
-13 14 39 -8 59 -16 15 -30 16 -97 11 -101 -9 -107 -9 -179 -1 -57 7 -62 6
-80 -17 -18 -24 -19 -24 -34 -6 -14 18 -125 44 -115 27z m-234 -52 c-7 -18
-15 -21 -45 -19 -21 2 -36 -1 -36 -7 0 -6 14 -11 30 -11 25 0 30 -4 30 -25 0
-22 -4 -25 -40 -25 -29 0 -40 -4 -40 -15 0 -10 11 -15 35 -15 35 0 40 -5 29
-34 -5 -13 -25 -16 -113 -16 l-107 0 -16 33 -15 32 -7 -32 c-7 -30 -11 -33
-43 -33 -29 0 -34 3 -28 18 3 9 14 52 23 95 l16 77 61 0 c34 0 66 -5 73 -12
18 -18 14 -49 -9 -74 -19 -21 -20 -24 -5 -52 9 -17 20 -33 25 -36 5 -3 17 34
27 84 l18 89 66 3 c79 4 81 3 71 -25z m167 18 c2 -1 0 -14 -4 -29 -6 -24 -34
-38 -34 -16 0 13 -47 13 -55 0 -3 -5 7 -12 22 -16 62 -15 71 -57 22 -98 -31
-26 -69 -32 -117 -20 -20 6 -22 11 -17 33 9 35 9 35 39 16 25 -17 56 -15 56 3
0 5 -15 13 -32 18 -57 17 -46 95 16 114 26 7 94 5 104 -5z m32 5 c0 -5 -5 -10
-11 -10 -5 0 -7 5 -4 10 3 6 8 10 11 10 2 0 4 -4 4 -10z m135 -15 c28 -27 31
-51 11 -99 -19 -46 -61 -76 -105 -76 -44 0 -57 8 -70 42 -18 48 14 122 62 143
47 21 75 18 102 -10z m399 -9 c-5 -21 -11 -26 -32 -24 -25 3 -27 -1 -40 -69
l-14 -73 -35 0 c-28 0 -33 3 -29 18 9 29 25 106 26 120 0 8 -8 10 -27 6 -22
-6 -25 -4 -20 10 4 10 7 22 7 26 0 7 155 19 168 14 2 -1 0 -14 -4 -28z m-200
8 c9 -8 16 -18 16 -20 0 -13 -31 -63 -41 -66 -8 -3 -2 -19 15 -46 l26 -42 -43
0 c-39 0 -44 3 -56 33 l-13 32 -9 -32 c-8 -28 -14 -33 -39 -33 -35 0 -35 -2
-15 87 26 111 19 103 85 103 40 0 64 -5 74 -16z m46 -63 c0 -20 -13 -41 -21
-35 -5 3 -9 0 -9 -5 0 -6 -4 -11 -10 -11 -15 0 -12 17 7 40 18 21 33 26 33 11z
m-17 -77 c-4 -12 -8 -13 -14 -3 -9 15 -2 32 11 24 5 -3 6 -13 3 -21z"/>
<path d="M1797 390 c-3 -11 -2 -20 3 -20 12 0 31 26 23 33 -11 12 -21 7 -26
-13z"/>
<path d="M2322 397 c-7 -8 -15 -28 -18 -45 -5 -24 -3 -33 10 -38 25 -9 38 9
40 52 1 39 -14 54 -32 31z"/>
<path d="M2517 390 c-3 -11 -2 -20 3 -20 12 0 31 26 23 33 -11 12 -21 7 -26
-13z"/>
<path d="M407 473 c-5 -4 -43 -6 -86 -4 -91 3 -93 2 -116 -89 -9 -36 -19 -74
-21 -86 -12 -46 67 -71 131 -42 19 9 28 9 37 0 16 -16 85 -15 91 1 3 9 7 9 18
0 22 -18 64 -19 85 -3 10 8 15 11 12 5 -4 -6 12 -11 38 -13 34 -2 46 1 55 16
12 19 13 19 45 -3 34 -23 67 -25 116 -6 14 5 29 7 32 4 3 -4 6 -1 6 6 0 9 7 8
22 -3 30 -21 74 -20 125 3 34 16 44 27 54 61 7 22 15 36 19 30 4 -6 6 5 6 25
-1 19 -4 35 -8 35 -5 0 -8 6 -8 13 0 8 -10 23 -23 35 -28 26 -75 29 -123 6
-30 -14 -35 -14 -56 0 -30 22 -86 20 -124 -3 -31 -19 -32 -19 -48 0 -18 21
-56 25 -74 7 -9 -9 -15 -9 -24 0 -15 15 -60 16 -75 1 -7 -7 -19 -8 -30 -4 -28
12 -68 17 -76 8z m49 -113 c-23 -94 -24 -95 -55 -98 -36 -4 -36 -1 -17 77 8
31 17 68 20 83 5 21 13 27 39 30 17 2 33 3 34 3 1 0 -9 -43 -21 -95z m220 75
c-2 -11 -12 -55 -21 -98 l-17 -78 -31 3 c-27 3 -33 8 -40 41 -12 48 -23 47
-31 -3 -6 -37 -9 -40 -37 -40 -28 0 -31 3 -25 23 3 12 13 55 22 95 l16 72 38
0 c35 0 39 -3 46 -32 l7 -33 9 35 c8 30 13 35 39 35 25 0 29 -3 25 -20z m165
15 c20 -11 24 -36 10 -59 -7 -11 -13 -10 -34 4 -21 14 -29 14 -47 3 -23 -14
-35 -49 -26 -74 6 -16 18 -16 73 1 19 6 21 4 16 -17 -8 -33 -31 -48 -73 -48
-52 0 -80 23 -80 66 0 89 92 160 161 124z m176 -5 c68 -48 2 -185 -89 -185
-18 0 -39 10 -54 25 -28 28 -27 60 3 118 24 48 99 71 140 42z m-645 -20 c-4
-22 -10 -25 -46 -25 l-41 -1 31 -13 c40 -18 46 -36 26 -77 -13 -25 -27 -36
-53 -43 -49 -12 -89 -1 -89 25 0 25 25 35 46 18 12 -10 18 -9 31 3 23 23 7 40
-29 32 -26 -5 -30 -4 -24 11 3 9 9 34 12 56 l7 39 67 0 c66 0 67 0 62 -25z
m428 -58 c0 -5 8 -6 18 -3 14 5 14 4 -2 -9 -26 -20 -41 -19 -43 3 -1 10 5 19
13 19 8 0 14 -5 14 -10z"/>
<path d="M942 397 c-19 -22 -26 -74 -11 -82 18 -12 51 33 47 63 -4 30 -20 38
-36 19z"/>
<path d="M1307 416 c9 -19 20 -33 24 -31 12 8 -2 45 -22 56 -18 9 -18 8 -2
-25z"/>
<path d="M1282 368 c-3 -86 -13 -112 -51 -128 -17 -7 -31 -16 -31 -20 0 -4 53
-7 117 -7 110 1 115 2 73 13 -102 27 -99 23 -103 121 -3 79 -3 81 -5 21z"/>
<path d="M1510 402 c-33 -11 -40 -43 -8 -37 12 3 29 -1 37 -8 14 -10 14 -10 3
5 -9 12 -10 17 -1 20 8 3 7 7 -2 15 -8 5 -21 8 -29 5z"/>
<path d="M1517 333 c-4 -3 -7 -16 -7 -29 0 -25 -17 -34 -63 -34 -18 0 -27 -4
-20 -8 6 -4 37 -5 69 -3 48 2 55 5 42 15 -11 8 -14 21 -11 39 5 27 2 33 -10
20z"/>
<path d="M960 226 c0 -2 7 -7 16 -10 8 -3 12 -2 9 4 -6 10 -25 14 -25 6z"/>
<path d="M1878 223 c7 -3 16 -2 19 1 4 3 -2 6 -13 5 -11 0 -14 -3 -6 -6z"/>
<path d="M542 63 c92 -2 245 -2 340 0 95 1 20 3 -167 3 -187 0 -265 -2 -173
-3z"/>
<path d="M1203 63 c9 -2 23 -2 30 0 6 3 -1 5 -18 5 -16 0 -22 -2 -12 -5z"/>
<path d="M1473 63 c15 -2 37 -2 50 0 12 2 0 4 -28 4 -27 0 -38 -2 -22 -4z"/>
<path d="M1593 63 c9 -2 25 -2 35 0 9 3 1 5 -18 5 -19 0 -27 -2 -17 -5z"/>
<path d="M1693 63 c9 -2 25 -2 35 0 9 3 1 5 -18 5 -19 0 -27 -2 -17 -5z"/>
<path d="M2403 63 c15 -2 39 -2 55 0 15 2 2 4 -28 4 -30 0 -43 -2 -27 -4z"/>
<path d="M2548 63 c17 -2 47 -2 65 0 17 2 3 4 -33 4 -36 0 -50 -2 -32 -4z"/>
</g>
</svg>
